<?xml version="1.0" encoding="UTF-8" standalone="no"?>
<svg
   version="1.1"
   width="350"
   height="350"
   id="svg12"
   sodipodi:docname="logo.svg"
   inkscape:version="1.4.2 (f4327f4, 2025-05-13)"
   xmlns:inkscape="http://www.inkscape.org/namespaces/inkscape"
   xmlns:sodipodi="http://sodipodi.sourceforge.net/DTD/sodipodi-0.dtd"
   xmlns="http://www.w3.org/2000/svg"
   xmlns:svg="http://www.w3.org/2000/svg">
  <defs
     id="defs12" />
  <sodipodi:namedview
     id="namedview12"
     pagecolor="#ffffff"
     bordercolor="#000000"
     borderopacity="0.25"
     inkscape:showpageshadow="2"
     inkscape:pageopacity="0.0"
     inkscape:pagecheckerboard="0"
     inkscape:deskcolor="#d1d1d1"
     inkscape:zoom="0.81519311"
     inkscape:cx="139.84417"
     inkscape:cy="141.68422"
     inkscape:window-width="1536"
     inkscape:window-height="793"
     inkscape:window-x="1912"
     inkscape:window-y="-8"
     inkscape:window-maximized="1"
     inkscape:current-layer="svg12" />
  <path
     id="path2"
     style="display:inline;fill:#00b986;fill-opacity:1"
     d="M 0 0 L -2 2 C -3.5005437 7.6714096 -3.5005437 7.6714096 -0.2265625 17.515625 L 1 21 L 2.1015625 24.171875 C 9.5282024 44.481462 16.845568 55.587449 36.636719 64.996094 C 40.138442 66.644201 43.63356 68.302202 47.115234 69.992188 C 50.125629 71.454492 53.139143 72.910966 56.15625 74.359375 C 57.687721 75.09312 59.219135 75.827492 60.75 76.5625 C 62.961669 77.636275 65.174102 78.708114 67.394531 79.763672 L 69.484375 80.753906 C 74.675393 83.297321 79.223723 84.728007 85 85 L 87 83 C 87.125 79.875 87.125 79.875 87 77 C 85.069469 76.027393 83.13595 75.064848 81.183594 74.136719 L 79.310547 73.263672 L 77.164062 72.259766 C 74.748632 71.131502 72.334818 69.998808 69.921875 68.865234 C 68.198184 68.055419 66.474225 67.246177 64.75 66.4375 C 58.136303 63.354899 51.515915 60.285817 45 57 C 24.843457 46.342341 17.821705 36.791559 11 15 C 21.214135 19.802873 31.471384 24.504208 41.765625 29.132812 L 44.25 30.25 C 57.748793 36.323501 71.270252 42.344871 84.814453 48.316406 C 104.74507 57.102245 124.64312 65.954515 144.48047 74.949219 C 146.71341 75.962231 148.94556 76.97594 151.17969 77.986328 C 154.55341 79.511582 157.92617 81.039637 161.29297 82.580078 C 162.50751 83.13704 163.72251 83.694024 164.9375 84.25 C 168.06922 85.666855 171.18777 87.099606 174.28711 88.585938 C 186.2421 94.814668 193.56148 103.17197 198.04688 115.99219 C 202.45338 131.99694 199.08049 146.68966 191 161 C 184.24586 170.83344 175.42712 174.90705 164.02734 177.50391 C 149.67477 179.85588 135.84548 176.10219 123.92578 168.00195 C 115.27099 162.08382 106.52118 156.36594 97.554688 150.92969 C 96.962291 150.57087 96.387472 150.22327 95.8125 149.875 C 86.421691 144.16358 76.946935 138.66839 67.3125 133.375 C 48.88322 123.44644 40.350289 112.89117 32 94 C 34.998577 93.816977 34.998333 93.817709 37.589844 95.019531 L 40.722656 96.457031 L 44.257812 98.066406 C 47.483115 99.548232 50.714048 101.01446 53.949219 102.47461 C 54.630656 102.78189 55.29173 103.08066 55.953125 103.37891 C 62.264219 106.22834 68.585754 109.04979 74.941406 111.79883 C 76.087661 112.29198 77.199958 112.77135 78.3125 113.25 C 84.848919 116.12065 90.782619 118.83389 98 119 L 100 117 C 100.3125 114.5625 100.3125 114.5625 100 112 C 97.538296 109.03047 94.777086 107.96508 91.201172 106.60352 C 81.824091 103.09867 72.677843 99.127541 63.572266 94.978516 C 60.8994 93.759511 58.225065 92.544014 55.550781 91.328125 L 53.574219 90.429688 C 47.933309 87.865782 42.28072 85.332795 36.597656 82.863281 L 33.875 81.6875 C 29.372589 79.72161 24.943823 77.487816 20 77 C 18.1875 78.0625 18.1875 78.0625 17 80 C 16.529258 84.589735 17.501309 88.009014 19.132812 92.216797 L 20.0625 94.5 C 30.693094 121.01561 44.718858 132.98568 68.8125 146.9375 C 71.010302 148.20738 73.207256 149.47849 75.398438 150.75977 C 76.098468 151.16936 76.77759 151.56729 77.457031 151.96484 C 79.703414 153.24976 81.84585 154.55793 84 156 C 84.193401 158.05209 84.192913 158.05282 82.873047 159.58203 C 82.334326 160.21978 81.811938 160.83804 81.289062 161.45703 C 80.691406 162.17148 80.111328 162.86515 79.53125 163.55859 C 74.568342 169.42725 69.668972 175.33192 65 181.4375 C 62.819303 184.30703 60.64305 187.17774 58.423828 190.01758 C 50.834008 199.67616 43.442762 209.43185 36.289062 219.41797 C 33.436681 223.39981 30.559975 227.36415 27.664062 231.31445 C 27.055616 232.14279 26.465552 232.94603 25.875 233.75 C 23.07901 237.57357 20.29552 241.39974 17.314453 245.08203 C 16.755977 245.75539 16.213926 246.40895 15.671875 247.0625 C 14.659112 248.29403 13.643647 249.52334 12.625 250.75 C 9.7066162 254.07302 8.068748 256.25142 7.6484375 260.82812 C 8 264 8 264 9 265 C 18.594592 265.64211 27.818807 264.95549 37.203125 262.89844 C 38.494062 262.59297 39.747031 262.29648 41 262 C 58.938583 257.79166 74.93106 248.00231 87.947266 235.06445 C 88.617471 234.37964 89.267476 233.71545 89.917969 233.05078 C 91.220157 231.74618 92.518442 230.43767 93.8125 229.125 C 95.481058 227.27066 97.126442 225.56595 99.03125 223.95508 C 103.79801 222.84154 103.7985 222.84129 108.67383 224.32617 C 110.99976 225 111 224.99997 114.12891 225.23047 C 114.95633 225.21587 115.75941 225.2017 116.5625 225.1875 C 118.76633 225.17031 120.40698 225.59302 122 224 C 122.125 221 122.125 221 122 218 C 121 217 121 217 118.625 216.1875 C 112.98583 214.34018 107.31186 212.58587 101.94922 210.01758 C 101.20264 209.6462 100.47852 209.28624 99.753906 208.92578 C 98.250824 208.18328 96.749516 207.43718 95.25 206.6875 C 89.625731 203.71969 86.292847 202.45974 80 204 L 79 211 C 82.283796 212.93164 85.431349 214.75802 88.9375 216.25 L 91 217 C 88.292011 220.82022 88.292011 220.82022 84.5625 223.8125 C 83.69125 224.55625 82.845625 225.27812 82 226 C 63.929083 241.81205 47.689976 249.77218 24 254 C 37.89907 234.44313 52.298294 215.20366 67.078125 196.30469 C 69.190417 193.60525 71.305122 190.91027 73.384766 188.18555 C 79.954048 179.50853 86.845212 171.19973 94 163 C 98.192231 164.1677 101.51249 165.81074 105.09766 168.27539 C 106.36135 169.15982 107.63164 170.03269 108.9082 170.89844 C 109.93287 171.5885 109.93312 171.58924 110.9375 172.26562 C 117.13562 176.447 123.3074 180.6383 130 184 C 146.09345 191.29962 162.12335 190.51099 178.45703 184.44141 C 192.86344 178.58037 200.91426 166.77946 207 153 C 212.25672 139.81424 211.80343 122.80641 206.70312 109.65625 C 195.58154 85.499667 195.58128 85.499667 146.24023 63.974609 C 145.47847 63.643242 144.73936 63.321621 144 63 C 143.8193 60.905556 143.81979 60.905312 145.21875 59.111328 C 145.80064 58.330972 146.36492 57.573811 146.92969 56.816406 C 155.86304 44.816667 164.22059 32.112087 177.36719 24.421875 C 178.26234 23.938437 179.13117 23.469219 180 23 C 181.3802 22.241651 182.77574 21.510329 184.1875 20.8125 C 202.00757 13.46172 218.94004 13.378656 237 20 C 252.62139 26.635385 263.39156 36.740057 270.09375 52.585938 C 280.42149 85.194806 264.75975 128.10857 250 157 C 247.96516 157.19087 247.96516 157.19087 246.48438 155.94141 C 242.81472 153.02386 239.88961 150.78741 235 151 C 231.15181 154.30971 228.31977 158.15418 225.39258 162.28125 C 221.05698 168.462 216.69995 174.48396 211.75 180.1875 C 208.26772 184.01928 207.22075 186.7816 207 192 L 209 194 C 211.5 194.25 211.5 194.25 214 194 C 216.0313 191.9687 217.79736 189.80409 219.58008 187.55469 C 220.0626 186.94093 220.53167 186.34571 221 185.75 C 225.92538 179.48972 230.60997 173.07986 235.19922 166.57031 C 235.81148 165.69641 236.40574 164.8482 237 164 L 244 166 C 239.311 176.65681 232.29403 186.82162 223.25391 194.21094 L 221 196 C 209.47921 206.2452 195.95736 212.61376 181.08594 216.49609 C 180.37697 216.66775 179.68812 216.83339 179 217 C 170.52431 219.07902 162.27178 219.19072 153.60742 219.04102 C 150.69585 218.98595 147.78497 218.93094 144.87305 218.89844 C 143.83037 218.88684 143.83063 218.8864 142.80859 218.875 C 141.51027 218.8511 140.25037 218.82789 138.99023 218.80469 C 136.00024 219 136 219 134 221 C 133.6875 224 133.6875 224 134 227 C 140.02864 231.0191 140.02888 231.01914 155.93359 231.18555 C 156.7425 231.18555 157.52738 231.18669 158.3125 231.1875 C 160.52754 231.1899 162.73693 231.16897 164.95117 231.10938 C 191.20144 229.69831 219.04407 215.29126 237 196.24609 L 239 194 C 261.35945 169.16118 276.73044 131.96862 280.80859 99 C 280.87367 98.32 280.9368 97.66 281 97 C 283.60367 96.516284 285.62589 95.702254 288.03711 94.556641 C 289.23449 93.934248 290.39642 93.33065 291.55859 92.726562 C 292.84461 92.060293 294.13041 91.393614 295.41602 90.726562 C 297.42703 89.675546 299.43878 88.624712 301.45312 87.580078 C 307.35107 84.525357 313.48478 81.707846 319 78 C 319.9375 75.4375 319.9375 75.4375 320 73 C 318 71 318 71.000976 315.54492 69.583984 C 314.49902 69.029824 313.48389 68.490986 312.46875 67.953125 C 310.74336 67.032917 309.01887 66.112846 307.29102 65.197266 C 301.17881 61.962766 295.08961 58.68585 289.01953 55.373047 C 288.10288 54.851509 287.21391 54.346042 286.32422 53.839844 C 282.72407 51.809828 281.13715 50.028415 279.3125 46.3125 C 275.47198 37.400357 270.51043 29.808015 263.43359 23.125 C 245.85425 7.7748169 225.95147 2.5710506 203 4 C 185.28568 6.4272025 167.77266 14.551259 156.125 28.359375 L 154 31 C 149.81092 36.200907 145.62926 41.414468 141.67969 46.800781 C 141.03488 47.692175 141.03439 47.692664 140.40234 48.566406 C 139.60008 49.668191 138.79922 50.771007 138 51.875 C 136.0048 54.793691 136.0048 54.793691 134 57 C 130.90944 57 129.00897 56.274122 126.2168 55.044922 L 124.28906 54.175781 C 122.15933 53.232053 120.03017 52.286399 117.9043 51.333984 C 116.37488 50.648467 114.84564 49.964775 113.31445 49.283203 C 108.60563 47.190456 103.89995 45.090877 99.197266 42.984375 C 97.801883 42.359259 96.405411 41.733905 95.009766 41.109375 C 90.880536 39.262145 86.75248 37.413637 82.625 35.5625 C 75.550174 32.380261 68.47419 29.204238 61.376953 26.072266 C 58.278772 24.705666 55.181289 23.337337 52.083984 21.96875 L 49.75 20.9375 C 38.959326 16.174759 28.269918 11.273298 17.6875 6.0625 C 11.861248 3.1215358 6.635211 0.1314771 0 0 z M 283 64 L 290.75 67.8125 L 293.17188 68.996094 L 295.10938 69.957031 L 297.07812 70.925781 C 299.20611 72.115412 301.08061 73.500709 303 75 C 300.0455 76.673534 297.0858 78.33764 294.125 80 L 291.57422 81.445312 L 289.13281 82.8125 L 286.87891 84.082031 C 284.99951 85 285 85 283 85 L 283 64 z "
     transform="translate(16,21)" />
  <path
     id="path3"
     d="M -15.222656 -3.0058594 C -23.755344 -2.6830056 -31.939554 0.97933768 -37.402344 8.0703125 C -42.848381 16.247644 -44.084242 24.3673 -42.300781 34.113281 C -40.001426 41.187094 -35.953165 46.981669 -29.6875 51 C -21.867692 55.290869 -14.266362 56.22735 -5.5625 54.3125 L -2.6875 53 C 2.2068684 50.801984 6.268074 48.522987 9.6875 44.3125 C 14.312419 37.477897 16.547784 29.211832 15.3125 21 C 12.942599 11.957698 7.9956088 4.9129645 0 0 C -4.8580004 -2.1905707 -10.103043 -3.1995717 -15.222656 -3.0058594 z M -14.402344 6.4277344 C -10.805883 6.4259092 -7.1794051 7.2401903 -4.25 8.625 C 2.1014132 14.511676 5.2839564 19.304286 5.6875 28 C 5.5551855 33.515861 3.8111761 36.599183 -0.18359375 40.4375 C -5.7423637 45.317019 -10.380644 45.344636 -17.519531 45.28125 C -21.615094 44.917649 -23.681166 43.780859 -26.6875 41 L -29.4375 38.6875 C -32.857487 34.602515 -33.494694 30.767392 -34.0625 25.5625 C -33.29439 18.265454 -29.960125 13.697224 -24.371094 9.1289062 C -21.565246 7.247491 -17.998804 6.4295595 -14.402344 6.4277344 z "
     style="fill:#00b986;fill-opacity:1"
     transform="translate(255.6875,58)" />
  <path
     d="M0 0 C7.15808687 5.21347327 12.80067573 11.9025581 15.46875 20.45703125 C15.91837289 23.3654214 15.99267363 26.20475772 15.96875 29.14453125 C15.96520508 29.93110107 15.96166016 30.7176709 15.95800781 31.52807617 C15.69562374 40.83415475 12.64380586 48.46318345 6.46875 55.45703125 C-2.38622326 62.95087736 -10.60189506 66.11598296 -22.1875 65.8046875 C-32.10056252 64.77400693 -40.49852934 60.99302398 -47.2109375 53.609375 C-48.79611761 51.62592825 -50.17911874 49.60523979 -51.53125 47.45703125 C-51.94632813 46.83699219 -52.36140625 46.21695313 -52.7890625 45.578125 C-57.36252977 37.40665026 -56.72651366 26.32876398 -54.90625 17.38671875 C-51.55882849 7.85254499 -44.39282323 1.46048087 -35.828125 -3.44921875 C-24.8784526 -8.66334846 -10.01415441 -6.10430709 0 0 Z M-41.96875 14.45703125 C-46.29844643 20.81364928 -47.43972674 26.85572583 -46.53125 34.45703125 C-44.46418692 41.9454933 -39.89895901 48.31192638 -33.60546875 52.84375 C-26.77614465 56.50920644 -19.06611152 56.39993197 -11.53125 55.45703125 C-5.21937521 53.31356203 -0.17988036 47.91025447 3.46875 42.45703125 C6.38312442 35.40015137 6.96450175 27.0711583 4.59375 19.7578125 C0.67593731 12.16705042 -5.387943 7.06322043 -13.53125 4.45703125 C-25.65380267 2.8774259 -34.0744661 4.65982927 -41.96875 14.45703125 Z "
     fill="#00B986"
     transform="translate(186.53125,121.54296875)"
     id="path4" />
  <path
     d="M0 0 C6.26514827 0.13052392 12.10305078 1.52073508 18.15625 3.046875 C19.21972656 3.29953125 20.28320312 3.5521875 21.37890625 3.8125 C36.06229688 7.41578604 47.14263088 12.56727666 55.33984375 25.90234375 C62.15660122 38.30196491 62.15660122 38.30196491 61.65625 45.296875 C60.65625 46.296875 60.65625 46.296875 57.78125 46.546875 C54.65625 46.296875 54.65625 46.296875 53.07104492 45.00292969 C51.23065009 42.78365806 50.14911415 40.30644074 48.95581055 37.69824219 C45.24897799 29.61894254 41.80630933 23.03676389 33.33105469 19.26098633 C24.74953777 16.10130904 16.01565018 14.3028241 7.06835938 12.49804688 C5.91271484 12.25505859 4.75707031 12.01207031 3.56640625 11.76171875 C2.52621338 11.551521 1.48602051 11.34132324 0.41430664 11.12475586 C-2.45667677 10.26297798 -4.17549452 9.35311728 -6.34375 7.296875 C-6.71875 4.734375 -6.71875 4.734375 -6.34375 2.296875 C-3.92610488 -0.12077012 -3.31440007 0.00674207 0 0 Z "
     fill="#00B986"
     transform="translate(153.34375,271.703125)"
     id="path6" />
  <path
     d="M0 0 C1.17778015 0.28001862 2.3555603 0.56003723 3.56903076 0.84854126 C6.04722865 1.43966556 8.52486078 2.03316619 11.00195312 2.62890625 C14.79583547 3.53881318 18.59306359 4.43371485 22.390625 5.328125 C24.80230285 5.90533359 27.21376888 6.48342807 29.625 7.0625 C30.7604425 7.32823822 31.89588501 7.59397644 33.06573486 7.86776733 C34.12073181 8.12458282 35.17572876 8.38139832 36.26269531 8.64599609 C37.18898743 8.86726166 38.11527954 9.08852722 39.06964111 9.3164978 C41.6965035 10.21525663 43.43352646 11.38563455 45.546875 13.1640625 C44.796875 17.9140625 44.796875 17.9140625 42.546875 20.1640625 C35.70425488 20.9401273 29.3032082 18.77488918 22.734375 17.0390625 C11.80294551 14.21255356 0.85165117 11.57496385 -10.1887207 9.20654297 C-11.20281006 8.98111816 -12.21689941 8.75569336 -13.26171875 8.5234375 C-14.14657959 8.33233398 -15.03144043 8.14123047 -15.94311523 7.94433594 C-18.80499317 7.05467911 -21.01320619 5.90134732 -23.453125 4.1640625 C-24.02748947 1.29224014 -23.82640054 -0.13604586 -22.453125 -2.7109375 C-16.79800521 -5.89194238 -5.93605055 -1.42056474 0 0 Z "
     fill="#00B886"
     transform="translate(99.453125,307.8359375)"
     id="path7" />
  <path
     d="M0 0 C7.38612363 0.33709489 14.27940146 2.20364606 21.375 4.1875 C22.43460938 4.46658203 23.49421875 4.74566406 24.5859375 5.03320312 C33.77495685 7.58383166 43.33621421 10.97433606 49.5 18.625 C50.1084375 19.35976563 50.716875 20.09453125 51.34375 20.8515625 C51.8903125 21.56054688 52.436875 22.26953125 53 23 C53.56074219 23.69609375 54.12148437 24.3921875 54.69921875 25.109375 C56.39012162 27.56702362 56.38463938 29.0767407 56 32 C54 34 54 34 51.140625 34.44921875 C48 34 48 34 45.796875 31.76953125 C44.44175927 29.81185452 43.08757893 27.85352996 41.734375 25.89453125 C34.87798056 18.636548 25.08007004 16.68175967 15.6875 14.375 C13.39791925 13.8067642 11.11006994 13.2314952 8.82421875 12.6484375 C7.82479248 12.40270996 6.82536621 12.15698242 5.7956543 11.90380859 C2.82323215 10.94285263 0.51876598 9.84935013 -2 8 C-2.4375 4.9375 -2.4375 4.9375 -2 2 C-1.34 1.34 -0.68 0.68 0 0 Z "
     fill="#01B986"
     transform="translate(201,258)"
     id="path8" />
  <path
     d="M0 0 C7.90416574 1.97604144 15.76893009 3.62373983 23.8125 4.9140625 C27.13171861 5.7039727 29.35920363 6.61463655 32.0625 8.6875 C32.5625 11.75 32.5625 11.75 32.0625 14.6875 C26.78325992 18.20699339 20.89638181 16.066366 14.92236328 14.89550781 C10.96924216 14.09290912 7.02936412 13.2354225 3.09204102 12.35888672 C0.60880993 11.80891431 -1.87791378 11.27722379 -4.36523438 10.74609375 C-5.9507641 10.39693619 -7.53605988 10.0467142 -9.12109375 9.6953125 C-9.8616954 9.53894318 -10.60229706 9.38257385 -11.36534119 9.22146606 C-18.01416013 7.70754282 -18.01416013 7.70754282 -19.9375 4.6875 C-19.75 1.5625 -19.75 1.5625 -18.9375 -1.3125 C-13.14006775 -4.21121612 -5.88559483 -1.51667251 0 0 Z "
     fill="#00B886"
     transform="translate(131.9375,292.3125)"
     id="path9" />
</svg>
